<?xml version="1.0" encoding="utf-8"?>
<!-- Generator: Adobe Illustrator 24.1.2, SVG Export Plug-In . SVG Version: 6.00 Build 0)  -->
<svg version="1.1" id="Слой_1" xmlns="http://www.w3.org/2000/svg" xmlns:xlink="http://www.w3.org/1999/xlink" x="0px" y="0px"
	 viewBox="0 0 1920 100" style="enable-background:new 0 0 1920 100;" xml:space="preserve">
<style type="text/css">
	.st0{opacity:0.4;fill:#FFFFFF;}
	.st1{opacity:0.6;fill:#FFFFFF;}
	.st2{fill:#FEEBF0;}
</style>
<g transform="translate(0 -1984)">
	<path class="st0" d="M0,1998.6c0,0,73.2-14.8,217.3-14s200.7,49.3,343.3,49.3c125,0.5,132.5-36,269.6-35.3s129.6,37.2,278.7,38.1
		s185.2-33.5,317.9-34.5s118.1,23.4,242,24.5s251.3-28.2,251.3-28.2v84.8L0,2082.3L0,1998.6z"/>
	<path class="st1" d="M0,2054.8c0,0,94.1,11.6,240.6-5.2c27.3-2.8,179.3-53.6,300-54.1c126.4-2.3,150,37.7,291.3,37.7
		s147.8-37.8,284.1-37.7s152.4,40.5,312.9,37.7s203.6-47.2,329.3-49.1s161.7,16.7,161.7,16.7v82.7L0,2082.7V2054.8z"/>
	<path class="st2" d="M0,2024.6c0,0,90.5,25.4,252.5,22.9c105.8-1.6,263.8-33.1,372.8-28.7c274.4,11.2,299.3,48.4,481.5,49.3
		c182.2,0.9,258.1-56.6,467-59.5s346.3,38.9,346.3,38.9v36.4H0V2024.6z"/>
</g>
</svg>
